<svg xmlns="http://www.w3.org/2000/svg" viewBox="0 0 382.02 327.77"><defs><style>.cls-1{fill:#151515;}</style></defs><title>アセット 1</title><g id="レイヤー_2" data-name="レイヤー 2"><g id="レイヤー_1-2" data-name="レイヤー 1"><path class="cls-1" d="M333.58,222.6c0,20.13.26,40.27-.1,60.4-.19,11-1.48,22-2.16,33-.18,3-2.12,4.34-4.4,4.93a84.55,84.55,0,0,1-12.42,2.29c-30.34,3.16-60.81,2.66-91.25,3.18q-52.32.9-104.65,1.32c-11.76.09-23.53-.4-35.29-.77-8.75-.28-17.51-.73-26.25-1.24-8.9-.52-10-1.45-11.14-10.19a141,141,0,0,1-1.16-14.8c-.71-27.34-1.41-54.68-1.91-82-.26-14.44.14-28.9-.22-43.34-.18-7.38-1.32-14.75-2.12-22.11-.4-3.64-2.87-5.46-6.25-5.78-4.5-.43-9-.5-13.56-.72-5.14-.26-10.36,0-15.4-.89-6-1-6.61-3-3.33-8.17a21.77,21.77,0,0,1,4.14-5c9.21-7.64,18.34-15.39,27.83-22.66,33.74-25.88,67.47-51.78,101.53-77.24C149.93,22.07,165.25,12.44,180,2.09a10.34,10.34,0,0,1,11.34-.75,71.9,71.9,0,0,1,9,5.9c4.29,3,8.35,6.37,12.79,9.15,26.57,16.69,52.89,33.76,78.13,52.46C300.83,75.91,311.06,82,320.61,89c13.46,9.91,26.57,20.3,39.88,30.42,4.27,3.24,9,5.94,13,9.5a39.6,39.6,0,0,1,7.51,9.62c1.87,3.23,1.37,4.55-2.34,5.38a93.19,93.19,0,0,1-15.56,1.8c-6.27.31-12.61-.33-18.84.27-7.75.73-9.08,2-9.67,9.72-.71,9.24-.73,18.55-.81,27.83-.12,13,0,26,0,39ZM317.64,222h-.74q0-15.79,0-31.58c0-15.58,0-31.16.18-46.74.05-4.51,1-5.38,5.46-6.51a15.9,15.9,0,0,1,3.35-.59c6.08-.2,12.18-.12,18.25-.59a36.76,36.76,0,0,0,8.9-2.23c2-.68,2.71-2.48,1.25-4.19a67.3,67.3,0,0,0-7.31-7.41c-2.18-1.85-4.89-3.07-7.21-4.78-9.8-7.22-19.41-14.69-29.31-21.76Q278.34,72.67,246,50.05C232.9,40.87,219.73,31.79,206.38,23c-4.87-3.21-10.37-5.48-15.59-8.17-2.27-1.17-4.36-.74-6.41.63-3.52,2.34-7.15,4.53-10.62,7-22.94,16-44.16,34.28-67.31,50.09C84,87.84,63,105.28,41.35,121.89A18.59,18.59,0,0,0,36.91,127c-2.62,4.33-1.56,6.55,3.42,7.67,1.91.43,3.88.53,5.83.8,1.53.21,3.07.37,4.58.69,3.06.65,4.94,2.37,5.08,5.71.11,2.68.41,5.35.61,8a1224.47,1224.47,0,0,1,3.35,127.79c-.27,9.4,0,18.78,2.86,27.92.92,3,2.42,4.39,5.61,4.57,12.27.68,24.51,1.83,36.78,2.32,23.52.92,47,1.48,70.56,2.26,10.63.35,21.26,1.49,31.86,1.21,30.64-.8,61.27-2.09,91.9-3.31A80.81,80.81,0,0,0,310,311.08a5,5,0,0,0,4.5-5.06c1-12.85,2.54-25.67,3-38.54C318,252.33,317.64,237.15,317.64,222Z"/><path class="cls-1" d="M192.83,110.53c0-9.27-.19-18.54.06-27.8.18-6.89,4.33-8,10.27-7.23,9.84,1.25,18.05,5.9,24.8,12.91A28,28,0,0,0,240.32,96c23.91,7.4,39.22,24,48.57,46.58,12,29,14.47,58.67,6.16,89.11-2.5,9.15-7.39,17-12.59,24.68-6.52,9.7-12.87,19.66-22.22,26.85-18.53,14.26-39.57,20.91-63.09,19a4.94,4.94,0,0,1-4.78-4c-1.83-6.35.85-11.09,7.3-12.61,2.61-.61,5.32-.79,7.92-1.43a29.53,29.53,0,0,0,6.35-2.29c1.88-1,2.7-2.82,1.32-4.68-3.11-4.19-6.26-8.37-9.73-12.26s-7.7-7.46-11.22-11.48-4.6-8.71-1.53-13.65c4.89-7.88,10-15.65,14.6-23.68A188.93,188.93,0,0,0,216,198.76c1.41-3.18.57-4.54-2.82-5.39a25.64,25.64,0,0,0-6.43-.59c-5.57.07-11.13.45-16.69.44-9.29,0-18.57-.36-27.85-.31a30.21,30.21,0,0,0-8.12,1.45c-2.3.68-2.95,2.41-2.31,4.91,2,7.92,5.89,14.93,10.25,21.75,4.5,7,9.12,14.08,11.17,22.33a7.84,7.84,0,0,1-.5,5.53c-2.8,4.42-6.17,8.47-9.22,12.74-3.39,4.75-7.1,9.36-9.84,14.47-2.53,4.71-.59,7.93,4.71,9,3.83.76,7.78.95,11.65,1.53,2.83.42,5.53,1.13,6.3,4.53.87,3.89.78,7.65-1.92,10.82a4.34,4.34,0,0,1-3.06,1c-44.67-.71-79.92-21.44-93.83-65.67C65.74,199.75,70.87,164,92.87,131.08c9.4-14,22.18-24.69,36.7-33.17a15.77,15.77,0,0,0,7.15-7.73,14.78,14.78,0,0,1,7.1-7.42c7-3.8,14.16-6.64,22.39-5.9,2.82.26,4.56,1.53,5,4.08,1.05,5.55,2.41,11.14,2.54,16.74.24,10.42-.6,20.85-.42,31.27a89,89,0,0,0,2.25,16.18c.76,3.66,3,4.75,7.54,4.92,4,.15,6.18-1.13,7.52-4.54,2.93-7.51,2.74-15.39,2.6-23.24-.06-3.91-.42-7.83-.64-11.74ZM90,205.73h.22c0,1.65-.07,3.3,0,5s.26,3.29.49,4.93c2.48,17.78,10.55,31.93,26.55,41a4.11,4.11,0,0,0,4.8-.08c6.58-4,11.48-9.66,15.7-16,5.29-7.94,5.36-8,1.94-16.74-4.36-11.19-10.19-21.44-19.58-29.27-1.07-.89-2.42-1.94-3.69-2-6.57-.4-13.16-.68-19.74-.64-3.46,0-5.81,2.64-6.17,6.13C90.25,200.57,90.15,203.15,90,205.73Zm169.67-14.57c-3.5.85-7.11.72-9.2,2.43a69.09,69.09,0,0,0-19.71,26.59c-2.11,4.89-3,9.3,1.1,13.52a10,10,0,0,1,1,1.58c4.84,7.29,10.16,14,18.58,17.62,2.74,1.17,5.16,1,7.13-1a34.4,34.4,0,0,0,6.22-7.6c3.29-6.07,6.19-12.36,9-18.67A67.14,67.14,0,0,0,280,200.91c.14-3.42-1.18-5.53-4.15-6.29C270.43,193.22,264.88,192.25,259.65,191.16ZM262,150.28l.08.47c2.91-.53,5.86-.9,8.72-1.64,1.84-.48,2.65-1.92,1.77-3.85-1.78-3.92-3.14-8.13-5.51-11.65-6.79-10.1-17.07-15.19-28.38-18.54-3.81-1.13-6.67.28-8,4.06a13.9,13.9,0,0,0-1,5.11c.33,6.16,1.05,12.29,1.38,18.45.18,3.29,2.1,4.74,4.83,5.59a18.57,18.57,0,0,0,4.22.84C247.4,149.56,254.7,149.9,262,150.28ZM136.77,132.75c-.75-3.92-1.1-7.12-2-10.16-1.12-3.7-3.68-4.51-6.94-2.43s-6.27,4-9.23,6.25c-6.43,4.87-11.74,10.69-14.66,18.4-1.69,4.44-1.18,5.81,3.5,7.26,7.89,2.43,15.74,1.66,23.37-1.2a5.08,5.08,0,0,0,2.65-3.08C134.78,142.62,135.78,137.37,136.77,132.75Z"/></g></g></svg>