<svg xmlns="http://www.w3.org/2000/svg" viewBox="0 0 573.17 492.11"><title>アセット 2</title><g id="レイヤー_2" data-name="レイヤー 2"><g id="レイヤー_1-2" data-name="レイヤー 1"><path d="M500.82,334.56c0,30.07.36,60.14-.15,90.2-.27,16.09-2.22,32.15-3.06,48.23-.26,5.08-2.78,7.95-7.11,9.06a120.23,120.23,0,0,1-17.75,3.26c-33.65,3.34-67.41,3.85-101.2,4.18-63.23.62-126.44,1.9-189.66,2.58-18.74.2-37.5-.56-56.23-1.13-13.46-.41-26.91-1.09-40.35-1.91-13.06-.8-14.66-2.21-16.35-15.14a226.71,226.71,0,0,1-1.76-23.15c-1.2-44.29-2.38-88.59-3.26-132.89-.36-17.81.5-35.65,0-53.45-.32-11.55-2-23.07-3.22-34.59-.55-5.06-4-7.73-8.73-8.2-6.91-.7-13.87-.86-20.82-1.23-7.86-.42-15.86-.1-23.57-1.42-8.5-1.44-9.46-4.46-5-11.67a33,33,0,0,1,6.44-7.87c13.8-11.49,27.51-23.11,41.76-34C101.52,126.54,152.16,87.65,203.3,49.43,225,33.22,248,18.75,270.2,3.2c5.72-4,11.36-4.06,17-1.23,4.8,2.39,9.13,5.73,13.55,8.83,6.57,4.61,12.8,9.74,19.59,14,39.79,25,79.12,50.55,116.9,78.51,14.31,10.59,29.66,19.77,44,30.32,20.21,14.87,39.89,30.46,59.87,45.65,6.41,4.87,13.16,9.29,19.59,14.14a34.6,34.6,0,0,1,11.91,15.72c1.25,3.33.4,5.18-2.78,6.57-8.08,3.52-16.57,3.32-25.11,3.24-9.74-.09-19.54-.39-29.22.45s-12.07,2.84-12.88,12.5c-1.22,14.48-1.39,29.06-1.57,43.61-.23,19.68-.05,39.36-.05,59.05Zm-23.93-1.4H476V296.44c0-26.8-.13-53.6,0-80.4,0-7.18,1.64-8.58,8.79-10.28a23.77,23.77,0,0,1,4.58-.74c9-.29,18-.41,26.94-.78a32.13,32.13,0,0,0,8.7-1.3c9.46-3.09,10.06-5.42,3.94-12.75-2.33-2.8-5.49-5-8.48-7.15-3.38-2.46-7.12-4.42-10.48-6.9-14.7-10.85-29.14-22-44-32.68q-47.44-33.9-95.25-67.34-29.88-20.91-60.22-41.19c-6.53-4.36-13.8-7.63-20.74-11.39-5.41-2.93-10.39-2.85-15.47,1.2-4.22,3.36-9.12,5.87-13.56,9-34.42,24.06-66.31,51.46-101.06,75.21-33.59,23-65,49.05-97.37,73.85a28.26,28.26,0,0,0-6.05,6.35C51,196.78,52.87,200.94,62,202.44c4.58.74,9.23,1.07,13.81,1.87,4.79.84,7.77,3.5,8,8.75.15,4,.61,8,.92,12.06,4.79,63.87,6.88,127.81,5,191.86-.41,14.26.07,28.51,4.49,42.35,1.32,4.14,3.51,6,7.89,6.26,27.39,1.46,54.76,3.42,82.16,4.59,28.49,1.21,57,1.65,85.5,2.56,13.93.44,27.88,2,41.79,1.6,45.84-1.28,91.68-3.15,137.5-5,5.68-.23,11.32-1.5,16.94-2.51,3.79-.68,5.81-3.11,6.13-7.06,1.54-19.29,3.88-38.54,4.56-57.85C477.5,379,476.89,356.09,476.89,333.16Z"/><path d="M289.45,166.17c0-13.91-.28-27.83.09-41.73.29-10.76,6.76-12.21,15.7-11,16.71,2.17,29.49,11.33,41,22.94a23.32,23.32,0,0,0,9.13,5.76c23.31,7.33,43.8,18.82,59,38.52a158.89,158.89,0,0,1,25.82,50.68c12.72,41.23,14.14,82.52.39,123.89-4.38,13.2-12.84,24-20.31,35.32-8.54,13-17.56,25.81-30.06,35.22-27.88,21-59.28,31-94.43,28-3.82-.32-5.81-2.33-6.88-5.81-2.88-9.45,1.09-16.74,10.68-19.07,3.91-.94,8-1.26,11.89-2.17a45.52,45.52,0,0,0,8.78-2.86c3.66-1.69,5.26-4.76,2.66-8.29-4.46-6.06-9.1-12-14.13-17.63-5.38-6-11.61-11.16-16.89-17.2-5.43-6.19-7.05-13.32-2.34-20.89,7.35-11.82,15-23.47,22-35.52a279.73,279.73,0,0,0,12.94-26.15c2-4.52.78-6.58-4.1-7.78a43.34,43.34,0,0,0-10.57-.89c-7.89.06-15.78.62-23.66.59-14.41-.06-28.81-.4-43.21-.61-.92,0-1.85.09-2.78.15-11.87.78-14.88,4.33-10.29,15,4.91,11.47,11.63,22.15,17.29,33.31,4.6,9.09,9,18.29,13,27.66a9.72,9.72,0,0,1-.66,7.84c-4.23,6.62-9.22,12.74-13.8,19.14-5,7-10.63,13.73-14.65,21.28-4.23,7.94-1.13,12.83,7.92,14.39,5.49,1,11.09,1.24,16.6,2.06,4.28.63,8.23,1.88,9.28,7,1.21,5.86,1.05,11.47-3.09,16.21a5.4,5.4,0,0,1-3.75,1.28c-44.25-.87-84-13-113.76-47.82-21.95-25.63-33.41-56-35.85-89.54-2.24-30.71,1.58-60.69,13.52-89.3,14.82-35.53,40-61.89,72.85-81.29,4.8-2.84,8.39-6.21,10.43-11.26,2.21-5.49,6.27-9,11.38-11.69,10.27-5.49,20.77-9.52,32.77-8.55,4.46.36,7.13,2.36,7.89,6.38,1.54,8.18,3.55,16.43,3.73,24.69.34,15.78-.91,31.61-.63,47.4.14,8.12,1.78,16.28,3.45,24.28,1.12,5.3,4.7,7,11.48,7.18,5.84.11,9-1.79,11-6.63,4.52-11.41,4.2-23.39,4-35.32-.1-5.73-.6-11.45-.92-17.18ZM135.05,309.29c.35,4.43.49,9.4,1.15,14.3,3.63,26.72,15.75,48,39.74,61.63,2.89,1.65,5,1.4,7.61-.24,9.83-6.13,17.16-14.61,23.46-24.13,7.72-11.65,7.83-11.69,2.76-24.74-6.53-16.8-15.27-32.2-29.34-44-1.61-1.35-3.62-3-5.52-3.08-10-.6-20.07-1-30.1-.94-4.85,0-8.38,4.1-8.9,9.06C135.5,301,135.35,304.9,135.05,309.29Zm254.21-22c-4.4,1-9.87.63-13,3.17-12.55,10.15-21.82,23-28.83,37.67-4.34,9.06-4.77,16.51,1.77,25,8.11,10.52,15.59,21.2,28.39,26.63,4.16,1.77,7.76,1.34,10.67-1.61,3.45-3.49,7-7.2,9.29-11.45,4.87-9,9.16-18.29,13.34-27.61,5.44-12.09,9.18-24.63,9.49-38.07.1-4.21-1.46-6.62-5.06-8.38C407.1,288.63,398.32,288.2,389.26,287.29Zm4.09-61.65.12.7c4.37-.8,8.79-1.36,13.08-2.47,2.78-.72,4-2.88,2.67-5.78-2.68-5.88-4.72-12.2-8.28-17.49-10.2-15.16-25.63-22.8-42.6-27.83-5.73-1.69-10,.42-12,6.1a20.65,20.65,0,0,0-1.53,7.67c.49,9.24,1.57,18.45,2.07,27.69.26,4.94,3.15,7.13,7.25,8.39a27.62,27.62,0,0,0,6.34,1.26C371.43,224.54,382.39,225.07,393.35,225.64Zm-188-26c-1.08-5.85-1.6-10.81-3-15.52-1.63-5.55-5.55-6.81-10.39-3.73s-9.41,6-13.85,9.38c-9.52,7.22-17.45,15.8-21.85,27.18-2.78,7.18-2,9.31,5.45,11.5,11.71,3.46,23.35,2.33,34.65-1.91a7.59,7.59,0,0,0,4-4.6C202.31,214.33,203.8,206.6,205.31,199.63Z"/></g></g></svg>